<svg xmlns="http://www.w3.org/2000/svg" width="177" height="60" viewBox="0 0 177 60" fill="none">
  <g filter="url(#filter1_d_16_16)">
    <ellipse cx="88.2047" cy="22.1837" rx="16.6046" ry="16.7999" fill="#F53838"/>
  </g>
  <path d="M88 5C78.611 5 71 12.611 71 22C71 31.389 78.611 39 88 39C97.389 39 105 31.389 105 22C105 12.611 97.389 5 88 5ZM94.9151 18.9258C94.9222 19.071 94.924 19.2163 94.924 19.3579C94.924 23.785 91.5576 28.8868 85.3986 28.8868C83.5787 28.8898 81.7967 28.3671 80.2668 27.3816C80.5271 27.4134 80.7945 27.4258 81.0654 27.4258C82.6344 27.4258 84.0776 26.8928 85.2233 25.9932C84.5251 25.9795 83.8486 25.7483 83.288 25.3319C82.7274 24.9154 82.3108 24.3344 82.096 23.6699C82.5975 23.7652 83.114 23.7453 83.6066 23.6115C82.8487 23.4582 82.1672 23.0476 81.6776 22.4492C81.188 21.8508 80.9204 21.1015 80.9202 20.3283V20.2876C81.3718 20.5373 81.8889 20.6896 82.4378 20.7073C81.7274 20.2344 81.2244 19.5079 81.0318 18.6764C80.8393 17.8449 80.9717 16.9713 81.4019 16.2342C82.2429 17.2683 83.2918 18.1143 84.4806 18.7174C85.6694 19.3205 86.9715 19.6672 88.3028 19.7351C88.1336 19.0167 88.2064 18.2625 88.51 17.5897C88.8136 16.917 89.331 16.3634 89.9817 16.0151C90.6324 15.6667 91.3799 15.5431 92.1081 15.6634C92.8363 15.7837 93.5044 16.1412 94.0084 16.6804C94.7578 16.5322 95.4764 16.2573 96.1334 15.8676C95.8837 16.6435 95.3608 17.3023 94.6619 17.7217C95.3257 17.6417 95.9738 17.4633 96.585 17.1922C96.1361 17.8649 95.5706 18.452 94.9151 18.9258Z" fill="white"/>
  <defs>
    <filter id="filter1_d_16_16" x="53.6001" y="0.383789" width="69.2093" height="69.5999" filterUnits="userSpaceOnUse" color-interpolation-filters="sRGB">
      <feFlood flood-opacity="0" result="BackgroundImageFix"/>
      <feColorMatrix in="SourceAlpha" type="matrix" values="0 0 0 0 0 0 0 0 0 0 0 0 0 0 0 0 0 0 127 0" result="hardAlpha"/>
      <feOffset dy="13"/>
      <feGaussianBlur stdDeviation="9"/>
      <feColorMatrix type="matrix" values="0 0 0 0 0.0658854 0 0 0 0 0.0730469 0 0 0 0 0.1375 0 0 0 0.08 0"/>
      <feBlend mode="normal" in2="BackgroundImageFix" result="effect1_dropShadow_16_16"/>
      <feBlend mode="normal" in="SourceGraphic" in2="effect1_dropShadow_16_16" result="shape"/>
    </filter>
  </defs>
</svg>